<svg xmlns="http://www.w3.org/2000/svg" width="2rem" height="2rem" viewBox="0 0 64 64">
  <defs>
    <style>
      .cls-5 {
        fill: #fff;
      }
      .cls-8 {
        fill: #fff;
      }
      .cls-9 {
        fill: #d30001;
      }
      .cls-10 {
        fill: #d30001;
      }
</style>
  </defs>
  <g id="_78-Coding" data-name="78-Coding">
    <path d="M36 51v13h-8V51a4 4 0 0 0 8 0z" style="fill: #fff;"/>
    <circle cx="32" cy="51" r="4" style="fill: #fff;"/>
    <circle cx="32" cy="24" r="18" style="fill: #d30001;"/>
    <path d="M32 1A23 23 0 1 1 9 24 23 23 0 0 1 32 1zm18 23a18 18 0 1 0-18 18 18 18 0 0 0 18-18z" style="fill: #fff;"/>
    <path class="cls-5" d="M28 59h8v5h-8z"/>
    <path d="M38.6 15c-7.6 0-7.6-2-15.2-2a25.633 25.633 0 0 0-6.082.619 17.886 17.886 0 0 0-3.1 7.776C16.8 20.806 18.565 20 23.394 20c7.6 0 7.6 2 15.2 2 5.864 0 7.215-1.188 11.012-1.732a17.884 17.884 0 0 0-2.761-6.437A26.948 26.948 0 0 1 38.6 15z" style="fill: #d30001;"/>
    <path d="M38.6 15a26.948 26.948 0 0 0 8.251-1.169 17.978 17.978 0 0 0-29.534-.212A25.633 25.633 0 0 1 23.394 13C31 13 31 15 38.6 15z" style="fill: #d30001;"/>
    <path class="cls-8" d="M48.534 16.887q.345.8.612 1.639-.267-.838-.612-1.639zM47.762 15.313q.42.76.767 1.564-.346-.802-.767-1.564zM49.152 18.542q.269.844.455 1.724-.186-.879-.455-1.724zM47.762 15.313a17.216 17.216 0 0 0-.8-1.313h-.013c.288.427.563.862.813 1.313z"/>
    <path class="cls-8" d="M55 24a22.9 22.9 0 0 0-2.284-10h-5.752c.285.425.55.864.8 1.313q.42.76.767 1.564v.01q.345.8.612 1.639l.006.016q.269.844.455 1.724a17.944 17.944 0 0 1-6.764 18.079l1.46 2.467a2.414 2.414 0 0 0 2.02 1.18A22.956 22.956 0 0 0 55 24zM47.762 15.313zM48.529 16.877v.01zM49.146 18.526l.006.016zM49.607 20.268v-.002.002z"/>
    <circle class="cls-5" cx="32" cy="51" r="2"/>
    <path class="cls-9" d="M59 17 46 39h-2l6-22h9zM55 11l4 6h-9l5-6z"/>
    <path class="cls-10" d="m55 11-5 6-6-6h11z"/>
    <path class="cls-9" d="M39 17H29l4-6 6 6z"/>
    <path class="cls-10" d="m44 11-5 6-6-6h11z"/>
    <path class="cls-9" d="M50 17H39l5-6 6 6z"/>
    <path class="cls-10" d="m50 17-6 22-5-22h11z"/>
    <path class="cls-9" d="m39 17 5 22h-2L29 17h10z"/>
    <path d="M54.6 22a25.883 25.883 0 0 1-5.806-.56L47 28a25.2 25.2 0 0 0 4.966.9l4.1-6.933c-.466.022-.945.033-1.466.033z" style="fill: #d30001;"/>
    <path d="M41.285 27.052A25.159 25.159 0 0 1 47 28l1.789-6.561c-2.652-.579-4.381-1.4-9.106-1.435z" style="fill: #d30001;"/>
    <path d="m41.285 27.052-1.6-7.047h-.289a26.29 26.29 0 0 0-7.973 1.1l3.657 6.189A28.748 28.748 0 0 1 39.394 27c.696 0 1.306.022 1.891.052z" style="fill: #d30001;"/>
    <path d="M32 46A22 22 0 1 1 47.8 8.7l1.437-1.39a24 24 0 1 0-20.974 40.4A4.956 4.956 0 0 0 27 51v13h2v-4h6v4h2V51a4.956 4.956 0 0 0-1.267-3.292A23.9 23.9 0 0 0 54.868 31.3l-1.906-.6A21.924 21.924 0 0 1 32 46zm-3 12v-3.026a4.9 4.9 0 0 0 6 0V58zm6-7a3 3 0 1 1-3-3 3 3 0 0 1 3 3z"/>
    <path d="M32 7a16.813 16.813 0 0 1 7.8 1.889l.918-1.778a19 19 0 1 0-1.323 34.4l-.78-1.842A17 17 0 1 1 32 7z"/>
    <path d="m59.832 16.445-4-6A1 1 0 0 0 55 10H33a1 1 0 0 0-.832.445l-4 6a1 1 0 0 0-.018 1.081l13 21A1 1 0 0 0 42 39h4a1 1 0 0 0 .851-.474l13-21a1 1 0 0 0-.019-1.081zm-15.765-3.964L47.586 16h-6.45zm-5.134 3.038L35.414 12h6.45zM46.414 12h6.45l-2.931 3.519zm2.26 6-4.586 16.052L40.266 18zm6.237-5.331L57.131 16h-4.995zm-21.755-.1L36.586 16h-5.717zM30.8 18h7.41l4.524 19h-.177zm14.643 19h-.117l5.429-19h6.45z"/>
    <path d="M32 38a14.015 14.015 0 0 1-14-14h2a12.013 12.013 0 0 0 12 12z" style="fill: #fff;"/>
  </g>
</svg>