<svg id="Layer_1" data-name="Layer 1" xmlns="http://www.w3.org/2000/svg" fill="#d30001" viewBox="0 0 128 128"><title>JEWELRY</title><path d="M96.337,39.106a1.751,1.751,0,0,0-1.474-.807H33.137a1.751,1.751,0,0,0-1.474.807l-3.632,5.676a8.35,8.35,0,0,1-1.992-5.416,1.75,1.75,0,0,0-3.5,0,8.4,8.4,0,0,1-8.393,8.393,1.75,1.75,0,0,0,0,3.5,8.388,8.388,0,0,1,7.159,4.034L16.231,63.22a1.75,1.75,0,0,0,.194,2.136l46.3,49.69a1.747,1.747,0,0,0,2.56,0L84,94.955a11.681,11.681,0,0,1,4.13,8.908,1.75,1.75,0,0,0,3.5,0,11.72,11.72,0,0,1,11.706-11.706,1.75,1.75,0,0,0,0-3.5A11.681,11.681,0,0,1,94.1,84.116l17.477-18.76a1.75,1.75,0,0,0,.194-2.136ZM107.1,62.414H82.629L94.863,43.3Zm-58.529-1.5L36.334,41.8H60.8ZM64,43.3,76.234,62.414H51.766ZM47.28,65.914l12.776,41.139L21.728,65.914Zm3.664,0H77.056L64,107.954Zm28.488-5L67.2,41.8H91.666ZM33.137,43.3,45.371,62.414H20.9l1.654-2.585a1.745,1.745,0,0,0,3.482-.178,8.4,8.4,0,0,1,8.393-8.392,1.75,1.75,0,0,0,0-3.5,8.32,8.32,0,0,1-3.619-.832ZM24.289,45.57a11.961,11.961,0,0,0,3,3.282,1.8,1.8,0,0,0,.144.114c.022.014.047.022.07.035.239.173.474.353.727.508a11.977,11.977,0,0,0-3.939,3.938,11.984,11.984,0,0,0-3.938-3.938A11.977,11.977,0,0,0,24.289,45.57ZM96.257,90.407a15.309,15.309,0,0,0-6.378,6.378,15.292,15.292,0,0,0-5.007-5.546,1.585,1.585,0,0,0-.23-.157c-.371-.24-.749-.468-1.141-.675a15.3,15.3,0,0,0,6.378-6.378c.115.218.243.426.368.637a1.744,1.744,0,0,0,.188.326A15.3,15.3,0,0,0,96.257,90.407ZM91.629,76.952a1.75,1.75,0,0,0-3.5,0,11.719,11.719,0,0,1-11.706,11.7,1.75,1.75,0,0,0,0,3.5,11.627,11.627,0,0,1,4.544.919L67.944,107.053,80.72,65.914h25.552L92.324,80.886A11.62,11.62,0,0,1,91.629,76.952Z"/><path d="M64,28.714a1.749,1.749,0,0,0,1.75-1.75V14.146a1.75,1.75,0,0,0-3.5,0V26.964A1.749,1.749,0,0,0,64,28.714Z"/><path d="M50.34,30.856a1.749,1.749,0,0,0,2.474-2.474l-9.063-9.064a1.75,1.75,0,1,0-2.475,2.474Z"/><path d="M76.423,31.369a1.743,1.743,0,0,0,1.237-.513l9.064-9.064a1.75,1.75,0,1,0-2.475-2.474l-9.063,9.064a1.75,1.75,0,0,0,1.237,2.987Z"/><path d="M113.834,27.869a6.57,6.57,0,0,1-6.563-6.564,1.75,1.75,0,1,0-3.5,0,6.572,6.572,0,0,1-6.565,6.564,1.75,1.75,0,0,0,0,3.5,6.572,6.572,0,0,1,6.565,6.564,1.75,1.75,0,1,0,3.5,0,6.57,6.57,0,0,1,6.563-6.564,1.75,1.75,0,0,0,0-3.5Zm-8.313,4.4a10.142,10.142,0,0,0-2.649-2.649,10.138,10.138,0,0,0,2.649-2.648,10.119,10.119,0,0,0,2.648,2.648A10.123,10.123,0,0,0,105.521,32.268Z"/></svg>
